<svg width="25" height="25" viewBox="0 0 25 25" fill="none" xmlns="http://www.w3.org/2000/svg">
<path d="M0.732422 11.7676H11.7676V0.732422C11.7676 0.32793 12.0955 0 12.5 0C12.9045 0 13.2324 0.32793 13.2324 0.732422V11.7676H24.2676C24.6721 11.7676 25 12.0955 25 12.5C25 12.9045 24.6721 13.2324 24.2676 13.2324H13.2324V24.2676C13.2324 24.6721 12.9045 25 12.5 25C12.0955 25 11.7676 24.6721 11.7676 24.2676V13.2324H0.732422C0.32793 13.2324 0 12.9045 0 12.5C0 12.0955 0.32793 11.7676 0.732422 11.7676Z" fill="#F21F5B"/>
</svg>
